{
  "accessors": [
    {
      "bufferView": 2,
      "componentType": 5126,
      "count": 14517,
      "max": [
        57.17714309692383,
        174.43955993652344,
        38.099449157714844
      ],
      "min": [
        -57.17714309692383,
        -0.05826568603515625,
        -9.078883171081543
      ],
      "type": "VEC3"
    },
    {
      "bufferView": 2,
      "byteOffset": 174204,
      "componentType": 5126,
      "count": 14517,
      "max": [
        0.9999576807022095,
        0.9996469616889954,
        0.9999610781669617
      ],
      "min": [
        -0.9999759197235107,
        -0.9999178647994995,
        -0.9998632073402405
      ],
      "type": "VEC3"
    },
    {
      "bufferView": 1,
      "componentType": 5126,
      "count": 14517,
      "max": [
        0.9935150146484375,
        0.9738559722900391
      ],
      "min": [
        0.009208000265061855,
        0.009607000276446342
      ],
      "type": "VEC2"
    },
    {
      "bufferView": 0,
      "componentType": 5125,
      "count": 80268,
      "type": "SCALAR"
    },
    {
      "bufferView": 2,
      "byteOffset": 348408,
      "componentType": 5126,
      "count": 1076,
      "max": [
        4.503635883331299,
        165.06369018554688,
        14.369575500488281
      ],
      "min": [
        -4.503635883331299,
        162.06552124023438,
        11.881147384643555
      ],
      "type": "VEC3"
    },
    {
      "bufferView": 2,
      "byteOffset": 361320,
      "componentType": 5126,
      "count": 1076,
      "max": [
        0.9971518516540527,
        0.996468722820282,
        0.999599277973175
      ],
      "min": [
        -0.9971874952316284,
        -0.9967026114463806,
        -0.39099612832069397
      ],
      "type": "VEC3"
    },
    {
      "bufferView": 1,
      "byteOffset": 116136,
      "componentType": 5126,
      "count": 1076,
      "max": [
        0.991100013256073,
        0.9763000011444092
      ],
      "min": [
        0.03620000183582306,
        0.010999999940395355
      ],
      "type": "VEC2"
    },
    {
      "bufferView": 0,
      "byteOffset": 321072,
      "componentType": 5125,
      "count": 6120,
      "type": "SCALAR"
    }
  ],
  "asset": {
    "extras": {
      "author": "krishgamehacker (https://sketchfab.com/krishgamehacker)",
      "license": "CC-BY-ND-4.0 (http://creativecommons.org/licenses/by-nd/4.0/)",
      "source": "https://sketchfab.com/3d-models/base-human-9e68c90a0ac14c9eae50a6611cb0ea13",
      "title": "Base Human"
    },
    "generator": "Sketchfab-13.42.0",
    "version": "2.0"
  },
  "bufferViews": [
    {
      "buffer": 0,
      "byteLength": 345552,
      "name": "floatBufferViews",
      "target": 34963
    },
    {
      "buffer": 0,
      "byteLength": 124744,
      "byteOffset": 345552,
      "byteStride": 8,
      "name": "floatBufferViews",
      "target": 34962
    },
    {
      "buffer": 0,
      "byteLength": 374232,
      "byteOffset": 470296,
      "byteStride": 12,
      "name": "floatBufferViews",
      "target": 34962
    }
  ],
  "buffers": [
    {
      "byteLength": 844528,
      "uri": "model.bin"
    }
  ],
  "materials": [
    {
      "doubleSided": true,
      "name": "base_human",
      "pbrMetallicRoughness": {
        "baseColorFactor": [
          0.5175,
          0.37787,
          0.28632,
          1.0
        ],
        "metallicFactor": 0.0,
        "roughnessFactor": 0.9603125611189833
      }
    },
    {
      "doubleSided": true,
      "name": "high-poly",
      "pbrMetallicRoughness": {
        "metallicFactor": 0.0,
        "roughnessFactor": 0.9
      }
    }
  ],
  "meshes": [
    {
      "name": "base_humanMesh_base_human_0",
      "primitives": [
        {
          "attributes": {
            "NORMAL": 1,
            "POSITION": 0,
            "TEXCOORD_0": 2
          },
          "indices": 3,
          "material": 0,
          "mode": 4
        }
      ]
    },
    {
      "name": "high-polyMesh_high-poly_0",
      "primitives": [
        {
          "attributes": {
            "NORMAL": 5,
            "POSITION": 4,
            "TEXCOORD_0": 6
          },
          "indices": 7,
          "material": 1,
          "mode": 4
        }
      ]
    }
  ],
  "nodes": [
    {
      "children": [
        1
      ],
      "matrix": [
        1.0,
        0.0,
        0.0,
        0.0,
        0.0,
        2.220446049250313e-16,
        -1.0,
        0.0,
        0.0,
        1.0,
        2.220446049250313e-16,
        0.0,
        0.0,
        0.0,
        0.0,
        1.0
      ],
      "name": "Sketchfab_model"
    },
    {
      "children": [
        2
      ],
      "matrix": [
        0.009999999776482582,
        0.0,
        0.0,
        0.0,
        0.0,
        0.0,
        0.009999999776482582,
        0.0,
        0.0,
        -0.009999999776482582,
        0.0,
        0.0,
        0.0,
        0.0,
        0.0,
        1.0
      ],
      "name": "ee1cc09e12494a75a72772fd468918e6.fbx"
    },
    {
      "children": [
        3,
        5
      ],
      "name": "RootNode"
    },
    {
      "children": [
        4
      ],
      "matrix": [
        1.1316972970962524,
        0.0,
        0.0,
        0.0,
        0.0,
        1.1316972970962373,
        1.8437688270861602e-07,
        0.0,
        0.0,
        -1.8437688270861602e-07,
        1.1316972970962373,
        0.0,
        0.0,
        0.0,
        0.0,
        1.0
      ],
      "name": "base_humanMesh"
    },
    {
      "mesh": 0,
      "name": "base_humanMesh_base_human_0"
    },
    {
      "children": [
        6
      ],
      "matrix": [
        1.1312297582626343,
        0.0,
        0.0,
        0.0,
        0.0,
        1.1312297582626192,
        1.8430074311973313e-07,
        0.0,
        0.0,
        -1.8430074311973313e-07,
        1.1312297582626192,
        0.0,
        0.0,
        0.0,
        0.0,
        1.0
      ],
      "name": "high-polyMesh"
    },
    {
      "mesh": 1,
      "name": "high-polyMesh_high-poly_0"
    }
  ],
  "scene": 0,
  "scenes": [
    {
      "name": "Sketchfab_Scene",
      "nodes": [
        0
      ]
    }
  ]
}
